<svg id="final_svg" xmlns="http://www.w3.org/2000/svg" xmlns:xlink="http://www.w3.org/1999/xlink" viewBox="1248.053955078125 765.9000244140625 898.166015625 340.2000732421875">
      <style type="text/css">.st0{fill:url(#SVGID_1_);}	.st1{fill:#FFFFFF;}	.st2{opacity:0.2;fill:#5B5B5B;}</style>
    <metadata>
              <sfw>
                      <slices></slices>
            <slicesourcebounds bottomleftorigin="true" height="315" width="315" x="343.59" y="-937.16"></slicesourcebounds>
                  </sfw>
          </metadata>
    <g id="color_index_g" transform="translate(1248.053945, 765.9) scale(1.08)" opacity="1">
              <linearGradient id="SVGID_1_" gradientUnits="userSpaceOnUse" x1="94.8433" y1="335.2741" x2="213.8592" y2="-6.0947">
                      <stop offset="0" style="stop-color:#0c0e11"></stop>
            <stop offset="1" style="stop-color:#ed0733"></stop>
                  </linearGradient>
        <path class="st0" d="M315,157.5c0,11.18-1.17,22.09-3.38,32.61L207.63,306.85c-15.75,5.28-32.61,8.15-50.13,8.15		C70.52,315,0,244.48,0,157.5S70.52,0,157.5,0S315,70.52,315,157.5z"></path>
          </g>
    <g transform="translate(1248.053945, 765.9) scale(1.08)" opacity="1">
              <path class="st1" d="M287.29,173.91c3.11-4.87,12.49-3.58,12.49-3.58c-7.22-8.76-28.9-11.94-28.9-11.94		c7.32-5.3,15.6-4.94,15.6-4.94c-9.89-9.47-28.65-8.88-28.65-8.88c8-28.09-6.79-56.52-6.79-56.52		c-6.75,17.9-26.51,39.51-26.51,39.51c-6.88-5.32-19.67-9.08-19.67-9.08c4.45,0.05,10.15,0.08,13.26-1.01		c4.62-27.42-9.05-49.49-9.05-49.49c-7.44,21.47-26.04,41.51-26.04,41.51c-47.45,2.63-65.68,24.3-65.68,24.3		c21.06,3.48,24.23,10.65,24.23,10.65c-42.11-8.64-88.43,15.56-88.43,15.56c12.69,21.92,37.52,40.08,37.52,40.08		s49.11-12.31,83.22,23.98c19.34,20.58,33.55,50,33.74,82.79c52.36-17.57,92.43-61.9,103.98-116.74		C301.26,176.5,287.29,173.91,287.29,173.91z"></path>
          </g>
    <g transform="translate(1248.053945, 765.9) scale(1.08)" opacity="1">
              <path class="st2" d="M80.63,191.85c5.84,5.15,10.05,8.23,10.05,8.23s49.11-12.31,83.21,23.98c19.34,20.58,33.55,50,33.74,82.79		c18.53-6.22,35.52-15.79,50.26-27.99C200.01,158.93,80.63,191.85,80.63,191.85z"></path>
          </g>
    <g fill="#2e2e2e" id="text_group" transform="translate(1632.719945, 875.84765)" opacity="1.0">
              <path d="M13.85 63.32L3.78 63.32L3.78 26.12Q3.78 22.08 6.58 19.27Q9.37 16.46 13.41 16.46L13.41 16.46L40.92 16.46Q44.96 16.46 47.79 19.30Q50.61 22.15 50.61 26.12L50.61 26.12L50.61 63.32L40.41 63.32L40.41 48.23L13.85 48.23L13.85 63.32ZM13.85 26.63L13.85 38.06L40.41 38.06L40.41 26.63L13.85 26.63ZM69.42 63.32L59.35 63.32L59.35 16.52L96.49 16.52Q100.46 16.52 103.32 19.37Q106.18 22.21 106.18 26.18L106.18 26.18L106.18 38.29Q106.18 42.26 103.32 45.09Q100.46 47.91 96.49 47.91L96.49 47.91L69.42 47.98Q69.61 47.98 69.61 48.36L69.61 48.36Q69.49 48.36 69.42 48.29L69.42 48.29L69.42 63.32ZM69.42 26.63L69.42 37.75L95.98 37.75L95.98 26.63L69.42 26.63ZM155.49 63.32L112.22 63.32L112.22 16.46L155.49 16.46L155.49 26.63L122.42 26.63L122.42 34.82L149.04 34.82L149.04 44.96L122.42 44.96L122.42 53.19L155.49 53.19L155.49 63.32ZM173.03 63.32L162.54 63.32L162.54 59.86L179.29 39.91L162.54 19.92L162.54 16.46L173.03 16.46L186.06 31.90Q187.93 29.48 192.55 24.05Q197.18 18.62 198.92 16.46L198.92 16.46L209.41 16.46L209.41 19.92L192.60 39.91L209.41 59.80L209.41 63.32L198.92 63.32L185.90 47.98L173.03 63.32ZM255.22 63.32L238.19 16.46L248.93 16.46L259.13 44.39L260.75 40.03L269.36 16.46L278.67 16.46L288.93 44.39L290.55 40.03L299.16 16.46L309.84 16.46L292.78 63.32L285.02 63.32L273.97 33.20L269.81 44.64L262.97 63.32L255.22 63.32ZM314.51 53.70L314.51 53.70L314.51 26.12Q314.51 22.08 317.30 19.27Q320.10 16.46 324.14 16.46L324.14 16.46L351.71 16.46Q355.69 16.46 358.51 19.30Q361.34 22.15 361.34 26.12L361.34 26.12L361.34 53.70Q361.34 57.67 358.51 60.49Q355.69 63.32 351.71 63.32L351.71 63.32L324.14 63.32Q320.10 63.32 317.30 60.53Q314.51 57.73 314.51 53.70ZM324.58 26.63L324.58 53.19L351.14 53.19L351.14 26.63L324.58 26.63ZM416.69 63.32L369.85 63.32L369.85 16.39L379.93 16.39L379.93 53.19L416.69 53.19L416.69 63.32ZM432.10 63.32L421.90 63.32L421.90 16.46L465.17 16.46L465.17 26.63L432.10 26.63L432.10 34.82L458.72 34.82L458.72 44.96L432.10 44.96L432.10 63.32ZM513.50 63.32L470.22 63.32L470.22 16.46L513.50 16.46L513.50 26.63L480.42 26.63L480.42 34.82L507.05 34.82L507.05 44.96L480.42 44.96L480.42 53.19L513.50 53.19L513.50 63.32Z"></path>
          </g>
  </svg>